<?xml version="1.0" encoding="utf-8"?>
<svg width="60px" height="60.000015px" viewBox="0 0 60 60.000015" version="1.1" xmlns:xlink="http://www.w3.org/1999/xlink" xmlns="http://www.w3.org/2000/svg">
  <g id="Group">
    <path d="M5.28072 24.4376C5.28072 24.4376 6.6574 8.58232 15.7872 7.69117C24.917 6.80002 38.4062 -1.86907 43.071 5.99298C47.7357 13.855 62.7113 18.2442 54.5125 28.9185C46.3137 39.5928 21.9597 44.8276 17.5474 40.8057C13.1352 36.7838 5.28072 24.4376 5.28072 24.4376Z" id="Vector" fill="#A4CBB4" fill-rule="evenodd" stroke="none" />
    <path d="M5.28072 33.2901C5.28072 19.2219 17.102 7.81735 31.6843 7.81735C46.2666 7.81735 58.0879 19.2219 58.0879 33.2901C58.0879 47.3583 46.2666 58.7629 31.6843 58.7629C17.102 58.7629 5.28072 47.3583 5.28072 33.2901Z" id="Oval" fill="#C493EF" fill-rule="evenodd" stroke="none" />
    <path d="M36.3685 35.7461C36.3685 35.7461 39.963 34.7872 46.4072 28.2286C52.8514 21.67 50.2716 13.6078 55.4476 17.1904C60.6235 20.773 62.9918 36.6073 53.6873 47.7247C44.3828 58.842 32.6325 61.1289 29.9241 57.9138C27.2156 54.6987 36.3685 35.7461 36.3685 35.7461Z" id="Vector" fill="#E7C794" fill-rule="evenodd" stroke="none" />
    <path d="M8.29152 51.656C3.36707 45.8362 -4.29124 25.62 3.01081 23.6358C10.3129 21.6516 23.831 25.3447 32.0547 32.1268C40.2784 38.9089 47.4133 57.0141 35.5752 59.2978C23.7372 61.5816 13.339 58.1018 8.29152 51.656Z" id="Vector" fill="#F7B1DF" fill-rule="evenodd" stroke="none" />
    <path d="M24.0708 11.0945C24.0708 11.0945 29.4961 1.3313 22.6209 0.469695C15.7456 -0.391904 9.49806 -0.617342 13.9544 4.76898C18.4107 10.1553 24.0708 11.0945 24.0708 11.0945Z" id="Vector" fill="#222222" fill-rule="evenodd" stroke="none" />
    <g id="Group" transform="translate(28.163828 21.402817)">
      <path d="M0 2.54729C0 1.14047 1.18213 0 2.64037 0C4.09859 0 5.28071 1.14047 5.28071 2.54729C5.28071 3.9541 4.09859 5.09455 2.64037 5.09455C1.18213 5.09455 0 3.9541 0 2.54729Z" id="Oval" fill="#000000" fill-rule="evenodd" stroke="none" />
      <path d="M1.76025 1.69822C1.76025 0.760336 2.54835 1.52588e-05 3.52051 1.52588e-05C4.49264 1.52588e-05 5.28073 0.760336 5.28073 1.69822C5.28073 2.63607 4.49264 3.39639 3.52051 3.39639C2.54835 3.39639 1.76025 2.63607 1.76025 1.69822Z" id="Oval" fill="#FFFFFF" fill-rule="evenodd" stroke="none" />
    </g>
    <g id="Group" transform="translate(42.245758 18.006454)">
      <path d="M0 2.54729C0 1.14046 1.18214 0 2.64037 0C4.09858 0 5.28072 1.14046 5.28072 2.54729C5.28072 3.95411 4.09858 5.09455 2.64037 5.09455C1.18214 5.09455 0 3.95411 0 2.54729Z" id="Oval" fill="#000000" fill-rule="evenodd" stroke="none" />
      <path d="M1.76015 1.69818C1.76015 0.760305 2.54822 0 3.52036 0C4.49254 0 5.28063 0.760305 5.28063 1.69818C5.28063 2.63606 4.49254 3.39637 3.52036 3.39637C2.54822 3.39637 1.76015 2.63606 1.76015 1.69818Z" id="Oval" fill="#FFFFFF" fill-rule="evenodd" stroke="none" />
    </g>
  </g>
</svg>